<svg width="20" height="20" viewBox="0 0 20 20" fill="none" xmlns="http://www.w3.org/2000/svg">
<path id="Icon / Audio Call" d="M7.28918 4.39182L5.27637 2.12741C4.80289 1.59474 4.05666 1.34568 3.44627 1.71359C3.12249 1.90875 2.81527 2.14437 2.53111 2.39619C1.11166 3.65409 0.80748 5.69021 1.48316 7.46238C2.19069 9.31808 3.42486 11.7739 5.47348 13.8225C8.70003 17.0491 12.2367 18.6534 15.1353 18.6534C16.9667 18.6534 18.3159 17.7494 18.8022 16.6554C19.0407 16.119 18.7332 15.5414 18.2748 15.1747L15.3762 12.8559C14.6705 12.2913 13.6677 12.2913 12.962 12.8559L12.2728 13.4072C11.9602 13.6573 11.5237 13.6901 11.1837 13.4786C8.95463 12.0923 7.86366 10.8738 6.7049 8.56894C6.53881 8.23859 6.58626 7.84222 6.81724 7.55349L7.35383 6.88275C7.94198 6.14756 7.91468 5.09551 7.28918 4.39182Z" stroke="#0A84FF" stroke-width="1.44927"/>
</svg>
