<svg width="7" height="12" viewBox="0 0 7 12" fill="none" xmlns="http://www.w3.org/2000/svg">
<path id="SF Symbol / chevron.right" d="M6.19694 5.95771C6.19694 5.7993 6.13358 5.65357 6.01319 5.53951L0.994806 0.622509C0.880752 0.514791 0.741352 0.457764 0.576607 0.457764C0.253454 0.457764 0 0.704881 0 1.03437C0 1.19278 0.0633634 1.33852 0.164745 1.44623L4.7776 5.95771L0.164745 10.4692C0.0633634 10.5769 0 10.7163 0 10.881C0 11.2105 0.253454 11.4577 0.576607 11.4577C0.741352 11.4577 0.880752 11.4006 0.994806 11.2866L6.01319 6.37591C6.13358 6.25552 6.19694 6.11612 6.19694 5.95771Z" fill="black"/>
</svg>
