<svg width="111" height="48" viewBox="0 0 111 48" fill="none" xmlns="http://www.w3.org/2000/svg">
<g id="New LOGO">
<path id="CLOUD" fill-rule="evenodd" clip-rule="evenodd" d="M110.9 28.3991C109.075 27.4998 106.947 26.9839 104.675 26.9839C100.282 26.9839 96.4281 28.9123 94.2585 31.8116C92.5299 30.8805 90.4716 30.3402 88.2623 30.3402C84.4644 30.3402 81.1126 31.9367 79.1151 34.3707C77.7179 33.722 76.1095 33.3525 74.3979 33.3525C69.312 33.3525 65.1376 36.6145 64.7056 40.7721C60.8539 41.0685 58.18 43.3195 57.2373 46.3534C56.9874 46.9766 56.6703 47.5254 55.9424 47.5254C55.28 47.5254 54.9678 47.028 54.733 46.4735C53.8195 43.379 51.1142 41.0724 47.2102 40.7721C46.7782 36.6145 42.6037 33.3525 37.5178 33.3525C35.8062 33.3525 34.1979 33.722 32.8006 34.3707C30.8031 31.9367 27.4513 30.3402 23.6535 30.3402C21.4442 30.3402 19.3858 30.8805 17.6572 31.8116C15.4876 28.9123 11.6337 26.9839 7.24092 26.9839C4.62066 26.9839 2.19212 27.67 0.19841 28.8391C4.01924 13.9932 27.3716 2.5708 55.6089 2.5708C83.5666 2.5708 106.736 13.7681 110.9 28.3991ZM97.498 45.5738C97.3389 45.4778 97.1825 45.3787 97.0292 45.2765C96.9358 45.3773 96.8399 45.4764 96.7417 45.5738H97.498ZM15.1741 45.5738C15.0758 45.4764 14.98 45.3773 14.8866 45.2765C14.7332 45.3787 14.5769 45.4778 14.4177 45.5738H15.1741Z" fill="url(#paint0_linear_1_885)" fill-opacity="0.21"/>
<path id="BOOSTER" fill-rule="evenodd" clip-rule="evenodd" d="M52.4191 40.5451C52.3739 40.7663 52.3311 40.9757 52.2914 41.1675C52.116 42.0133 51.8747 41.724 51.6439 40.8916C51.0345 38.6941 51.3806 35.7851 52.9181 32.9016C54.0824 30.7179 55.1077 30.3658 55.9036 30.3213C56.6996 30.2768 58.0322 30.6771 59.1909 32.9016C60.3706 35.1663 61.0611 38.3618 60.3497 40.8631C60.1076 41.7142 59.8083 42.025 59.5772 41.1708C59.3184 40.2141 58.9824 38.8154 58.7115 37.6876C58.5307 36.9349 58.3788 36.3027 58.2983 36.0031C58.066 36.2074 57.8062 37.5064 57.507 39.0024C57.0496 41.2895 56.9821 45.9641 55.9036 45.9641C54.8252 45.9641 54.6871 41.3911 54.3003 39.1435C54.038 37.6193 53.8072 36.2783 53.5611 36.0695C53.2068 36.6893 52.7487 38.9313 52.4191 40.5451Z" fill="#313A4B"/>
<g id="ROCKET">
<path d="M53.7506 2.53729C50.4126 5.87536 48.2261 12.6402 49.1551 19.5825L46.6621 22.0755C44.8616 23.8761 45.1743 26.2524 45.884 28.3844L46.8333 31.2416L51.3307 26.7442L55.9994 26.7442L60.668 26.7442L65.1639 31.2401L66.1148 28.3844C66.8259 26.254 67.1372 23.8761 65.3366 22.0755L62.8436 19.5825C63.7727 12.6402 61.5846 5.87381 58.2481 2.53729L55.9994 0.288558L53.7506 2.53729ZM54.4432 11.182C54.8559 10.7693 55.4157 10.5374 55.9994 10.5374C56.5831 10.5374 57.1428 10.7693 57.5556 11.182C57.9683 11.5948 58.2002 12.1546 58.2002 12.7383C58.2002 13.322 57.9683 13.8817 57.5556 14.2945C57.1428 14.7072 56.5831 14.9391 55.9994 14.9391C55.4157 14.9391 54.8559 14.7072 54.4432 14.2945C54.0304 13.8817 53.7986 13.322 53.7986 12.7383C53.7986 12.1546 54.0304 11.5948 54.4432 11.182Z" fill="url(#paint1_radial_1_885)"/>
<path d="M53.7506 2.53729C50.4126 5.87536 48.2261 12.6402 49.1551 19.5825L46.6621 22.0755C44.8616 23.8761 45.1743 26.2524 45.884 28.3844L46.8333 31.2416L51.3307 26.7442L55.9994 26.7442L60.668 26.7442L65.1639 31.2401L66.1148 28.3844C66.8259 26.254 67.1372 23.8761 65.3366 22.0755L62.8436 19.5825C63.7727 12.6402 61.5846 5.87381 58.2481 2.53729L55.9994 0.288558L53.7506 2.53729ZM54.4432 11.182C54.8559 10.7693 55.4157 10.5374 55.9994 10.5374C56.5831 10.5374 57.1428 10.7693 57.5556 11.182C57.9683 11.5948 58.2002 12.1546 58.2002 12.7383C58.2002 13.322 57.9683 13.8817 57.5556 14.2945C57.1428 14.7072 56.5831 14.9391 55.9994 14.9391C55.4157 14.9391 54.8559 14.7072 54.4432 14.2945C54.0304 13.8817 53.7986 13.322 53.7986 12.7383C53.7986 12.1546 54.0304 11.5948 54.4432 11.182Z" fill="url(#paint2_radial_1_885)"/>
</g>
</g>
<defs>
<linearGradient id="paint0_linear_1_885" x1="49.9254" y1="22.7896" x2="49.9254" y2="43.0085" gradientUnits="userSpaceOnUse">
<stop stop-opacity="0"/>
<stop offset="1"/>
</linearGradient>
<radialGradient id="paint1_radial_1_885" cx="0" cy="0" r="1" gradientUnits="userSpaceOnUse" gradientTransform="translate(55.9986 7.60953) rotate(90) scale(45.578 34.1235)">
<stop stop-color="#546077"/>
<stop offset="1" stop-color="#21242A"/>
</radialGradient>
<radialGradient id="paint2_radial_1_885" cx="0" cy="0" r="1" gradientUnits="userSpaceOnUse" gradientTransform="translate(55.9986 9.33683) rotate(90) scale(28.0662 28.0684)">
<stop stop-color="#E1B776"/>
<stop offset="1" stop-color="#B38A4A"/>
</radialGradient>
</defs>
</svg>
