<svg width="16" height="17" viewBox="0 0 16 17" fill="none" xmlns="http://www.w3.org/2000/svg">
<g id="SVG">
<g id="Group">
<path id="Vector" d="M14.25 8.93945C14.25 9.13837 14.171 9.32913 14.0303 9.46978C13.8897 9.61044 13.6989 9.68945 13.5 9.68945H8.75V14.4395C8.75 14.6384 8.67098 14.8291 8.53033 14.9698C8.38968 15.1104 8.19891 15.1895 8 15.1895C7.80109 15.1895 7.61032 15.1104 7.46967 14.9698C7.32902 14.8291 7.25 14.6384 7.25 14.4395V9.68945H2.5C2.30109 9.68945 2.11032 9.61044 1.96967 9.46978C1.82902 9.32913 1.75 9.13837 1.75 8.93945C1.75 8.74054 1.82902 8.54978 1.96967 8.40912C2.11032 8.26847 2.30109 8.18945 2.5 8.18945H7.25V3.43945C7.25 3.24054 7.32902 3.04978 7.46967 2.90912C7.61032 2.76847 7.80109 2.68945 8 2.68945C8.19891 2.68945 8.38968 2.76847 8.53033 2.90912C8.67098 3.04978 8.75 3.24054 8.75 3.43945V8.18945H13.5C13.6989 8.18945 13.8897 8.26847 14.0303 8.40912C14.171 8.54978 14.25 8.74054 14.25 8.93945Z" fill="black"/>
</g>
</g>
</svg>
