<svg width="16" height="17" viewBox="0 0 16 17" fill="none" xmlns="http://www.w3.org/2000/svg">
<g id="SVG">
<g id="Group">
<path id="Vector" d="M13.2069 13.1731C13.3466 13.313 13.4418 13.4911 13.4803 13.685C13.5189 13.879 13.4991 14.08 13.4234 14.2626C13.3478 14.4453 13.2197 14.6014 13.0553 14.7113C12.891 14.8212 12.6977 14.8799 12.5 14.88H3.49999C3.30223 14.88 3.10889 14.8214 2.94443 14.7116C2.77997 14.6017 2.65177 14.4456 2.57605 14.2629C2.50032 14.0802 2.48046 13.8792 2.51899 13.6852C2.55752 13.4912 2.6527 13.313 2.79249 13.1731C2.79536 13.1706 2.79807 13.1679 2.80062 13.165L7.27687 8.88L2.80124 4.595C2.79869 4.59214 2.79598 4.58943 2.79312 4.58688C2.65336 4.44703 2.55819 4.26889 2.51965 4.07497C2.4811 3.88105 2.5009 3.68005 2.57655 3.49738C2.6522 3.31472 2.7803 3.15857 2.94467 3.04868C3.10903 2.9388 3.30228 2.8801 3.49999 2.88H12.5C12.6978 2.87997 12.8911 2.93858 13.0556 3.04842C13.22 3.15826 13.3482 3.3144 13.4239 3.4971C13.4997 3.67979 13.5195 3.88084 13.481 4.07481C13.4425 4.26879 13.3473 4.44699 13.2075 4.58688C13.2046 4.58943 13.2019 4.59214 13.1994 4.595L8.72312 8.88L13.1987 13.165C13.2013 13.1679 13.204 13.1706 13.2069 13.1731Z" fill="#D12323"/>
</g>
</g>
</svg>
