<svg width="16" height="17" viewBox="0 0 16 17" fill="none" xmlns="http://www.w3.org/2000/svg">
<g id="SVG">
<g id="Group">
<path id="Vector" d="M13.2781 6.75625L9.20375 8.38625L12.0919 12.0994C12.1528 12.1771 12.1978 12.266 12.2243 12.3611C12.2508 12.4562 12.2582 12.5557 12.2462 12.6537C12.2342 12.7517 12.2029 12.8463 12.1542 12.9322C12.1055 13.0181 12.0404 13.0935 11.9624 13.1542C11.8845 13.2148 11.7954 13.2595 11.7002 13.2856C11.6049 13.3117 11.5055 13.3188 11.4075 13.3064C11.3096 13.294 11.215 13.2623 11.1293 13.2133C11.0436 13.1643 10.9685 13.0988 10.9081 13.0206L8 9.28187L5.09188 13.0206C4.96941 13.1767 4.79008 13.2779 4.59316 13.3021C4.39623 13.3263 4.19775 13.2714 4.04117 13.1496C3.8846 13.0277 3.78269 12.8488 3.75775 12.6519C3.73281 12.4551 3.78689 12.2564 3.90813 12.0994L6.79625 8.38625L2.72188 6.75625C2.6286 6.72101 2.54329 6.66754 2.47093 6.59894C2.39857 6.53035 2.34061 6.44801 2.30045 6.35675C2.26028 6.26549 2.23872 6.16714 2.23702 6.06745C2.23531 5.96776 2.25351 5.86872 2.29053 5.77615C2.32755 5.68357 2.38266 5.5993 2.45264 5.52828C2.52261 5.45725 2.60605 5.40089 2.69807 5.36249C2.79008 5.32409 2.88883 5.30442 2.98854 5.30464C3.08824 5.30485 3.1869 5.32495 3.27875 5.36375L7.25 6.9525V2.56C7.25 2.36109 7.32902 2.17032 7.46967 2.02967C7.61032 1.88902 7.80109 1.81 8 1.81C8.19892 1.81 8.38968 1.88902 8.53033 2.02967C8.67098 2.17032 8.75 2.36109 8.75 2.56V6.9525L12.7213 5.36375C12.8131 5.32495 12.9118 5.30485 13.0115 5.30464C13.1112 5.30442 13.2099 5.32409 13.3019 5.36249C13.394 5.40089 13.4774 5.45725 13.5474 5.52828C13.6173 5.5993 13.6725 5.68357 13.7095 5.77615C13.7465 5.86872 13.7647 5.96776 13.763 6.06745C13.7613 6.16714 13.7397 6.26549 13.6996 6.35675C13.6594 6.44801 13.6014 6.53035 13.5291 6.59894C13.4567 6.66754 13.3714 6.72101 13.2781 6.75625Z" fill="black"/>
</g>
</g>
</svg>
