<svg width="20" height="21" viewBox="0 0 20 21" fill="none" xmlns="http://www.w3.org/2000/svg">
<g id="SVG">
<g id="Group">
<path id="Vector" d="M13.2477 6.3311C12.682 5.00684 11.6765 3.91853 10.401 3.25014C9.12553 2.58175 7.65839 2.3743 6.2476 2.66285C4.83682 2.9514 3.56895 3.71825 2.65834 4.83376C1.74773 5.94928 1.25025 7.34501 1.25 8.785V13.9413C1.25 14.2313 1.36523 14.5095 1.57035 14.7147C1.77547 14.9198 2.05367 15.035 2.34375 15.035H6.77109C7.25882 16.1488 8.06026 17.0965 9.07758 17.7624C10.0949 18.4283 11.2841 18.7836 12.5 18.785H17.6562C17.9463 18.785 18.2245 18.6698 18.4296 18.4647C18.6348 18.2595 18.75 17.9813 18.75 17.6913V12.535C18.7497 11.0071 18.1897 9.5322 17.1759 8.3891C16.1621 7.246 14.7646 6.51387 13.2477 6.3311ZM17.5 17.535H12.5C11.6159 17.534 10.7477 17.2991 9.98375 16.8541C9.21976 16.4091 8.5871 15.7699 8.15 15.0014C9.00603 14.9126 9.83445 14.6478 10.5833 14.2236C11.3321 13.7994 11.9852 13.225 12.5015 12.5364C13.0178 11.8479 13.3862 11.06 13.5836 10.2224C13.7809 9.38467 13.803 8.51523 13.6484 7.6686C14.7447 7.92732 15.7216 8.54865 16.4206 9.4319C17.1197 10.3152 17.5 11.4086 17.5 12.535V17.535Z" fill="white"/>
</g>
</g>
</svg>
