<svg width="16" height="17" viewBox="0 0 16 17" fill="none" xmlns="http://www.w3.org/2000/svg">
<g id="SVG">
<g id="Group">
<path id="Vector" d="M15 6.28497C15 10.66 8.51312 14.2012 8.23687 14.3475C8.16406 14.3866 8.08268 14.4071 8 14.4071C7.91732 14.4071 7.83594 14.3866 7.76312 14.3475C7.48687 14.2012 1 10.66 1 6.28497C1.00116 5.25761 1.40979 4.27267 2.13624 3.54621C2.86269 2.81976 3.84764 2.41113 4.875 2.40997C6.16562 2.40997 7.29562 2.96497 8 3.9031C8.70438 2.96497 9.83438 2.40997 11.125 2.40997C12.1524 2.41113 13.1373 2.81976 13.8638 3.54621C14.5902 4.27267 14.9988 5.25761 15 6.28497Z" fill="#DD31CF"/>
</g>
</g>
</svg>
