<svg width="24" height="25" viewBox="0 0 24 25" fill="none" xmlns="http://www.w3.org/2000/svg">
<g id="SVG">
<g id="Group">
<path id="Vector" d="M12 11.78C11.1842 11.78 10.3866 11.5381 9.70827 11.0848C9.02992 10.6316 8.50121 9.98732 8.189 9.23357C7.87679 8.47982 7.7951 7.65042 7.95426 6.85025C8.11343 6.05008 8.50629 5.31508 9.08319 4.73819C9.66008 4.16129 10.3951 3.76843 11.1953 3.60926C11.9954 3.4501 12.8248 3.53179 13.5786 3.844C14.3323 4.15621 14.9766 4.68492 15.4298 5.36327C15.8831 6.04163 16.125 6.83915 16.125 7.655C16.1238 8.74864 15.6888 9.79713 14.9154 10.5704C14.1421 11.3438 13.0936 11.7788 12 11.78ZM17.625 12.53C16.8092 12.53 16.0116 12.7719 15.3333 13.2252C14.6549 13.6785 14.1262 14.3227 13.814 15.0764C13.5018 15.8302 13.4201 16.6596 13.5793 17.4597C13.7384 18.2599 14.1313 18.9949 14.7082 19.5718C15.2851 20.1487 16.0201 20.5416 16.8203 20.7007C17.6204 20.8599 18.4498 20.7782 19.2036 20.466C19.9573 20.1538 20.6016 19.6251 21.0548 18.9467C21.5081 18.2684 21.75 17.4708 21.75 16.655C21.7488 15.5614 21.3138 14.5129 20.5404 13.7396C19.7671 12.9662 18.7186 12.5312 17.625 12.53ZM6.375 12.53C5.55915 12.53 4.76163 12.7719 4.08327 13.2252C3.40492 13.6785 2.87621 14.3227 2.564 15.0764C2.25179 15.8302 2.1701 16.6596 2.32926 17.4597C2.48843 18.2599 2.88129 18.9949 3.45819 19.5718C4.03508 20.1487 4.77008 20.5416 5.57025 20.7007C6.37043 20.8599 7.19983 20.7782 7.95357 20.466C8.70732 20.1538 9.35155 19.6251 9.80481 18.9467C10.2581 18.2684 10.5 17.4708 10.5 16.655C10.4988 15.5614 10.0638 14.5129 9.29045 13.7396C8.51713 12.9662 7.46864 12.5312 6.375 12.53Z" fill="black"/>
</g>
</g>
</svg>
