<svg width="21" height="21" viewBox="0 0 21 21" fill="none" xmlns="http://www.w3.org/2000/svg">
<g id="SVG">
<g id="Group">
<path id="Vector" d="M13.6377 6.2711C13.072 4.94685 12.0665 3.85853 10.791 3.19014C9.51553 2.52175 8.04839 2.3143 6.6376 2.60285C5.22682 2.8914 3.95895 3.65825 3.04834 4.77377C2.13773 5.88928 1.64025 7.28501 1.64 8.72501V13.8813C1.64 14.1713 1.75523 14.4495 1.96035 14.6547C2.16547 14.8598 2.44367 14.975 2.73375 14.975H7.16109C7.64881 16.0888 8.45026 17.0365 9.46758 17.7024C10.4849 18.3683 11.6741 18.7237 12.89 18.725H18.0462C18.3363 18.725 18.6145 18.6098 18.8196 18.4047C19.0248 18.1995 19.14 17.9213 19.14 17.6313V12.475C19.1397 10.9471 18.5797 9.4722 17.5659 8.3291C16.5521 7.186 15.1546 6.45388 13.6377 6.2711ZM17.89 17.475H12.89C12.0059 17.474 11.1377 17.2391 10.3738 16.7941C9.60976 16.3491 8.9771 15.7099 8.54 14.9414C9.39603 14.8526 10.2245 14.5878 10.9733 14.1636C11.7221 13.7394 12.3752 13.165 12.8915 12.4764C13.4078 11.7879 13.7762 11 13.9736 10.1624C14.1709 9.32467 14.193 8.45523 14.0384 7.6086C15.1347 7.86732 16.1116 8.48865 16.8106 9.37191C17.5097 10.2552 17.89 11.3486 17.89 12.475V17.475Z" fill="black"/>
</g>
</g>
</svg>
