<svg width="24" height="25" viewBox="0 0 24 25" fill="none" xmlns="http://www.w3.org/2000/svg">
<g id="SVG">
<path id="Vector" d="M21.9453 10.233C21.6211 10.4153 21.3513 10.6806 21.1635 11.0017C20.9758 11.3228 20.877 11.6881 20.8772 12.06C20.8772 12.8447 21.3078 13.5279 21.9453 13.887L21.2322 16.2798C20.8468 16.2135 20.4505 16.2565 20.0882 16.4039C19.726 16.5513 19.4123 16.7972 19.1827 17.1138C18.953 17.4304 18.8167 17.805 18.7891 18.1951C18.7614 18.5852 18.8436 18.9753 19.0264 19.3211L16.9756 20.9143C16.7041 20.6917 16.381 20.5411 16.036 20.4761C15.691 20.4112 15.3352 20.4342 15.0014 20.5428C14.6675 20.6515 14.3664 20.8424 14.1257 21.098C13.885 21.3535 13.7125 21.6656 13.6241 22.0053L10.3521 21.9974C10.2626 21.6592 10.0899 21.3489 9.84961 21.0948C9.60933 20.8407 9.30919 20.6508 8.97661 20.5426C8.64404 20.4344 8.28964 20.4112 7.94582 20.4753C7.602 20.5394 7.27973 20.6886 7.00845 20.9093L4.95971 19.3032C5.13731 18.9588 5.21586 18.5719 5.18661 18.1856C5.15736 17.7992 5.02146 17.4285 4.79405 17.1148C4.56663 16.8011 4.25662 16.5567 3.89853 16.4088C3.54043 16.2608 3.1483 16.2151 2.76578 16.2768L2.05469 13.875C2.37289 13.6908 2.637 13.4261 2.82048 13.1075C3.00396 12.7889 3.10034 12.4277 3.09994 12.06C3.09994 11.2843 2.68124 10.608 2.05469 10.245L2.76578 7.84319C3.14837 7.90509 3.54064 7.85958 3.89889 7.71171C4.25715 7.56384 4.56732 7.31943 4.79487 7.00569C5.02242 6.69195 5.1584 6.3212 5.18768 5.93474C5.21696 5.54827 5.13839 5.16127 4.96071 4.81683L7.00745 3.21066C7.27873 3.4314 7.60101 3.58062 7.94483 3.64468C8.28865 3.70875 8.64304 3.68561 8.97562 3.57739C9.30819 3.46917 9.60834 3.27932 9.84861 3.02519C10.0889 2.77106 10.2616 2.46075 10.3511 2.12264L13.6251 2.11469C13.7135 2.45443 13.886 2.76645 14.1267 3.02202C14.3674 3.2776 14.6685 3.46851 15.0024 3.57718C15.3362 3.68584 15.692 3.70877 16.037 3.64385C16.382 3.57893 16.7051 3.42825 16.9766 3.20569L19.0254 4.79992C18.8426 5.14571 18.7604 5.53576 18.7881 5.92588C18.8157 6.316 18.952 6.69058 19.1817 7.00717C19.4113 7.32376 19.725 7.56969 20.0873 7.7171C20.4495 7.86451 20.8458 7.9075 21.2312 7.8412L21.9453 10.233ZM12 16.0381C13.0551 16.0381 14.0669 15.619 14.813 14.873C15.559 14.1269 15.9781 13.1151 15.9781 12.06C15.9781 11.0049 15.559 9.99308 14.813 9.24704C14.0669 8.501 13.0551 8.08187 12 8.08187C10.9449 8.08187 9.93308 8.501 9.18704 9.24704C8.441 9.99308 8.02188 11.0049 8.02188 12.06C8.02188 13.1151 8.441 14.1269 9.18704 14.873C9.93308 15.619 10.9449 16.0381 12 16.0381Z" fill="white"/>
</g>
</svg>
