<svg width="24" height="24" viewBox="0 0 24 24" fill="none" xmlns="http://www.w3.org/2000/svg">
<g id="SVG">
<g id="Group">
<path id="Vector" d="M21.75 12C21.75 13.9284 21.1782 15.8134 20.1068 17.4168C19.0355 19.0202 17.5127 20.2699 15.7312 21.0078C13.9496 21.7458 11.9892 21.9389 10.0979 21.5627C8.20656 21.1865 6.46928 20.2579 5.10571 18.8943C3.74215 17.5307 2.81355 15.7934 2.43735 13.9021C2.06114 12.0108 2.25422 10.0504 2.99218 8.26884C3.73013 6.48726 4.97982 4.96452 6.58319 3.89317C8.18657 2.82183 10.0716 2.25 12 2.25C14.5849 2.25323 17.063 3.28149 18.8907 5.10927C20.7185 6.93705 21.7468 9.41513 21.75 12Z" fill="black"/>
</g>
</g>
</svg>
